<svg width="100" height="44" viewBox="0 0 100 44" fill="none" xmlns="http://www.w3.org/2000/svg">
<path d="M43.831 30.8291V19.2965H43.7479L39.2569 30.8291H37.5105L33.0195 19.2965H32.9364V30.8291H30.8572V15.196H33.5185L38.3421 27.6683H38.4253L43.2489 15.196H45.9933V30.8291H43.831ZM57.7197 30.8291H55.5574V28.8643H55.4742C54.8921 30.2312 53.7277 31 52.0644 31C49.6526 31 48.2388 29.3769 48.2388 26.7286V19.3819H50.4843V26.3015C50.4843 28.0101 51.3159 28.9497 52.8129 28.9497C54.4762 28.9497 55.3911 27.7538 55.3911 25.9598V19.3819H57.6365L57.7197 30.8291ZM63.8739 19.2111C66.4521 19.2111 68.0322 20.6633 68.1154 22.799H66.0362C65.8699 21.6884 65.1214 21.005 63.8739 21.005C62.6265 21.005 61.7948 21.603 61.7948 22.5427C61.7948 23.2261 62.2938 23.7387 63.4581 23.995L65.2046 24.4221C67.4501 24.9347 68.2817 25.8744 68.2817 27.4975C68.2817 29.5477 66.4521 31 63.8739 31C61.1295 31 59.4662 29.6332 59.2998 27.4121H61.5453C61.7116 28.608 62.5433 29.206 63.8739 29.206C65.2046 29.206 66.0362 28.608 66.0362 27.6683C66.0362 26.8995 65.6204 26.4724 64.4561 26.2161L62.7096 25.7889C60.6305 25.2764 59.6325 24.2513 59.6325 22.5427C59.6325 20.5779 61.2958 19.2111 63.8739 19.2111ZM69.945 16.392C69.945 15.6231 70.5272 15.0251 71.2757 15.0251C72.0242 15.0251 72.6063 15.6231 72.6063 16.392C72.6063 17.1608 72.0242 17.7588 71.2757 17.7588C70.5272 17.7588 69.945 17.1608 69.945 16.392ZM70.1114 19.3819H72.3568V30.8291H70.1114V19.3819ZM81.8377 23.3116C81.5882 22.1156 80.7565 21.0905 79.2596 21.0905C77.5131 21.0905 76.3488 22.6281 76.3488 25.0201C76.3488 27.4975 77.5131 28.9497 79.2596 28.9497C80.6734 28.9497 81.505 28.1809 81.8377 26.8141H84C83.7505 29.206 81.9209 30.9146 79.2596 30.9146C76.0993 30.9146 74.1033 28.6935 74.1033 25.0201C74.1033 21.4322 76.0993 19.1256 79.2596 19.1256C82.0872 19.1256 83.7505 21.005 84 23.2261L81.8377 23.3116ZM23.9545 16.7337C23.3723 17.4171 22.4575 18.0151 21.5427 17.9296C21.3763 16.9045 21.8753 15.8794 22.3743 15.2814C22.9565 14.5126 23.9545 14 24.7861 14C24.8693 14.9397 24.5366 15.9648 23.9545 16.7337ZM24.7861 18.1005C25.2851 18.1005 26.7821 18.2714 27.7801 19.809C27.6969 19.8945 26.0336 20.9196 26.0336 23.0553C26.0336 25.6181 28.1959 26.4724 28.1959 26.4724C28.1959 26.5578 27.8633 27.6683 27.1148 28.8643C26.4494 29.8894 25.701 30.9146 24.6198 30.9146C23.5386 30.9146 23.206 30.2312 21.9585 30.2312C20.711 30.2312 20.2952 30.9146 19.2972 30.9146C18.2161 30.9146 17.3844 29.804 16.7191 28.7789C15.3053 26.6432 14.2241 22.799 15.7211 20.2362C16.3864 18.9548 17.7171 18.1005 19.0477 18.1005C20.1289 18.1005 21.1268 18.8693 21.709 18.8693C22.2912 18.8693 23.4555 18.0151 24.7861 18.1005Z" fill="white"/>
</svg>
