<svg width="113" height="27" viewBox="0 0 113 27" fill="none" xmlns="http://www.w3.org/2000/svg">
<path d="M47.2161 26.7286V8.41206H47.0799L39.7251 26.7286H36.865L29.5102 8.41206H29.374V26.7286H25.9691V1.8995H30.3274L38.2269 21.7085H38.3631L46.2627 1.8995H50.7572V26.7286H47.2161ZM69.9612 26.7286H66.4201V23.608H66.2839C65.3305 25.7789 63.4237 27 60.6997 27C56.75 27 54.4346 24.4221 54.4346 20.2161V8.54774H58.112V19.5377C58.112 22.2513 59.4739 23.7437 61.9255 23.7437C64.6495 23.7437 66.1477 21.8442 66.1477 18.995V8.54774H69.825L69.9612 26.7286ZM80.0399 8.27638C84.2621 8.27638 86.8499 10.5829 86.9861 13.9749H83.5811C83.3087 12.2111 82.0829 11.1256 80.0399 11.1256C77.997 11.1256 76.635 12.0754 76.635 13.5678C76.635 14.6533 77.4522 15.4673 79.3589 15.8744L82.2191 16.5528C85.8965 17.3668 87.2585 18.8593 87.2585 21.4372C87.2585 24.6935 84.2621 27 80.0399 27C75.5454 27 72.8214 24.8291 72.549 21.3015H76.2264C76.4988 23.201 77.8608 24.1508 80.0399 24.1508C82.2191 24.1508 83.5811 23.201 83.5811 21.7085C83.5811 20.4874 82.9001 19.809 80.9933 19.402L78.1332 18.7236C74.7282 17.9095 73.0938 16.2814 73.0938 13.5678C73.0938 10.4472 75.8178 8.27638 80.0399 8.27638ZM89.9824 3.799C89.9824 2.57789 90.9358 1.62814 92.1616 1.62814C93.3874 1.62814 94.3408 2.57789 94.3408 3.799C94.3408 5.0201 93.3874 5.96985 92.1616 5.96985C90.9358 5.96985 89.9824 5.0201 89.9824 3.799ZM90.2548 8.54774H93.9322V26.7286H90.2548V8.54774ZM109.459 14.7889C109.05 12.8894 107.688 11.2613 105.237 11.2613C102.377 11.2613 100.47 13.7035 100.47 17.5025C100.47 21.4372 102.377 23.7437 105.237 23.7437C107.552 23.7437 108.914 22.5226 109.459 20.3518H113C112.591 24.1508 109.595 26.8643 105.237 26.8643C100.061 26.8643 96.7924 23.3367 96.7924 17.5025C96.7924 11.804 100.061 8.1407 105.237 8.1407C109.867 8.1407 112.591 11.1256 113 14.6533L109.459 14.7889ZM14.6646 4.34171C13.7112 5.42714 12.213 6.37688 10.7148 6.24121C10.4424 4.61307 11.2596 2.98492 12.0768 2.03518C13.0302 0.81407 14.6646 0 16.0266 0C16.1628 1.49246 15.618 3.1206 14.6646 4.34171ZM16.0266 6.51256C16.8438 6.51256 19.2953 6.78392 20.9297 9.22613C20.7935 9.36181 18.0695 10.99 18.0695 14.3819C18.0695 18.4523 21.6107 19.809 21.6107 19.809C21.6107 19.9447 21.0659 21.7085 19.8401 23.608C18.7505 25.2362 17.5247 26.8643 15.7542 26.8643C13.9836 26.8643 13.4388 25.7789 11.3958 25.7789C9.35283 25.7789 8.67183 26.8643 7.03745 26.8643C5.26687 26.8643 3.90488 25.1005 2.81529 23.4724C0.499913 20.0804 -1.27067 13.9749 1.18091 9.90452C2.2705 7.86935 4.44967 6.51256 6.62885 6.51256C8.39943 6.51256 10.0338 7.73367 10.9872 7.73367C11.9406 7.73367 13.8474 6.37688 16.0266 6.51256Z" fill="white"/>
</svg>
