<svg width="133" height="40" viewBox="0 0 133 40" fill="none" xmlns="http://www.w3.org/2000/svg">
<path d="M19.945 0C8.92991 0 0 8.95446 0 20.0001C0 31.0463 8.92991 40 19.945 40C30.9613 40 39.8902 31.0463 39.8902 20.0001C39.8902 8.95518 30.9615 0 19.945 0ZM29.0916 28.8459C29.0065 28.9858 28.8947 29.1074 28.7627 29.2039C28.6306 29.3004 28.4809 29.3698 28.3221 29.4082C28.1632 29.4465 27.9984 29.4531 27.837 29.4275C27.6756 29.402 27.5209 29.3447 27.3816 29.2591C22.6987 26.3907 16.8035 25.7411 9.86091 27.3317C9.53944 27.405 9.20209 27.3474 8.92301 27.1713C8.64393 26.9953 8.44595 26.7154 8.37259 26.3931C8.33605 26.2335 8.33127 26.0683 8.3585 25.9068C8.38574 25.7454 8.44447 25.5909 8.53133 25.4523C8.61818 25.3136 8.73146 25.1935 8.86467 25.0988C8.99788 25.0041 9.14841 24.9367 9.30764 24.9004C16.9052 23.1598 23.4223 23.9093 28.6796 27.1311C29.2655 27.4917 29.4513 28.2584 29.0916 28.8459ZM31.5329 23.4001C31.0827 24.1338 30.1253 24.3655 29.3941 23.9141C24.0329 20.6096 15.8606 19.6526 9.51938 21.5828C8.69698 21.8319 7.82838 21.3672 7.57878 20.5439C7.45967 20.1481 7.50196 19.7211 7.69635 19.3566C7.89075 18.992 8.22139 18.7196 8.61576 18.5991C15.8592 16.3952 24.8641 17.4628 31.0208 21.2566C31.752 21.708 31.983 22.6679 31.5329 23.4001ZM31.7424 17.7293C25.3143 13.9006 14.7086 13.5486 8.57123 15.4165C7.58568 15.7162 6.54345 15.1583 6.24479 14.17C6.10118 13.6952 6.1515 13.1827 6.38468 12.745C6.61787 12.3074 7.01483 11.9806 7.48827 11.8364C14.5335 9.69173 26.2455 10.1061 33.6464 14.5118C33.8573 14.6369 34.0415 14.8025 34.1885 14.9992C34.3355 15.1958 34.4424 15.4196 34.503 15.6577C34.5636 15.8958 34.5768 16.1436 34.5418 16.3868C34.5068 16.6301 34.4243 16.864 34.299 17.0752C33.775 17.9641 32.6261 18.2571 31.7424 17.7293ZM54.2637 18.463C50.8198 17.6395 50.2077 17.0616 50.2077 15.8471C50.2077 14.6998 51.2842 13.9276 52.8871 13.9276C54.44 13.9276 55.9785 14.5139 57.5933 15.721C57.6409 15.7575 57.7029 15.7721 57.7624 15.7626C57.7924 15.7582 57.8211 15.7478 57.8469 15.732C57.8727 15.7161 57.895 15.6952 57.9125 15.6704L59.5939 13.2935C59.6271 13.2464 59.6412 13.1884 59.6332 13.1312C59.6253 13.0741 59.5959 13.0221 59.5511 12.9859C57.629 11.44 55.4665 10.6884 52.9371 10.6884C49.2193 10.6884 46.6209 12.926 46.6209 16.1275C46.6209 19.5607 48.862 20.7763 52.7347 21.7147C56.0285 22.4758 56.5859 23.1135 56.5859 24.2532C56.5859 25.5166 55.4617 26.3024 53.6516 26.3024C51.6415 26.3024 50.0005 25.6217 48.1666 24.0311C48.1209 23.9923 48.062 23.9727 48.0022 23.9762C47.9403 23.9809 47.8855 24.0096 47.8474 24.055L45.9611 26.3048C45.8825 26.4003 45.8921 26.5388 45.9826 26.62C48.1166 28.5307 50.7412 29.5385 53.5754 29.5385C57.5814 29.5385 60.1703 27.3437 60.1703 23.9451C60.1774 21.0775 58.465 19.4893 54.2709 18.4661L54.2637 18.463ZM69.235 15.0573C67.4988 15.0573 66.0745 15.7432 64.898 17.1487V15.5667C64.8982 15.5069 64.8748 15.4494 64.8328 15.4069C64.7908 15.3644 64.7337 15.3404 64.6741 15.3401H61.5898C61.4659 15.3401 61.3659 15.4418 61.3659 15.5667V33.1449C61.3659 33.269 61.4659 33.3717 61.5898 33.3717H64.6741C64.7979 33.3717 64.898 33.269 64.898 33.1449V27.5968C66.0745 28.9176 67.4988 29.5648 69.235 29.5648C72.4622 29.5648 75.7299 27.0738 75.7299 22.3118C75.7346 17.5488 72.467 15.0571 69.2374 15.0571L69.235 15.0573ZM72.1431 22.3118C72.1431 24.7356 70.6545 26.429 68.5205 26.429C66.4127 26.429 64.8217 24.6592 64.8217 22.3118C64.8217 19.9641 66.4127 18.1948 68.5205 18.1948C70.6188 18.1946 72.1431 19.9258 72.1431 22.3118ZM84.1015 15.0573C79.9455 15.0573 76.6897 18.2662 76.6897 22.3636C76.6897 26.417 79.924 29.5911 84.0515 29.5911C88.2218 29.5911 91.4871 26.3931 91.4871 22.3118C91.4871 18.2442 88.2433 15.0573 84.1015 15.0573ZM84.1015 26.4528C81.8913 26.4528 80.2241 24.6712 80.2241 22.3106C80.2241 19.9392 81.8342 18.2184 84.0515 18.2184C86.276 18.2184 87.9527 19.9994 87.9527 22.3624C87.9527 24.7333 86.3332 26.4528 84.1015 26.4528ZM100.361 15.3401H96.9674V11.8613C96.9675 11.8317 96.9618 11.8023 96.9507 11.7749C96.9395 11.7475 96.923 11.7226 96.9022 11.7016C96.8814 11.6805 96.8567 11.6638 96.8295 11.6524C96.8023 11.6409 96.773 11.635 96.7435 11.6349H93.6592C93.5354 11.6349 93.433 11.7366 93.433 11.8613V15.3401H91.9516C91.8277 15.3401 91.7277 15.4418 91.7277 15.5667V18.2242C91.7277 18.3488 91.8277 18.4508 91.9516 18.4508H93.433V25.3279C93.433 28.1055 94.812 29.5146 97.5343 29.5146C98.6394 29.5146 99.5563 29.2854 100.421 28.7934C100.492 28.7552 100.535 28.6787 100.535 28.5975V26.0659C100.535 25.9895 100.495 25.9155 100.428 25.8749C100.396 25.8541 100.358 25.8422 100.32 25.8405C100.281 25.8389 100.243 25.8474 100.209 25.8653C99.6158 26.1639 99.0419 26.3024 98.3988 26.3024C97.4104 26.3024 96.9674 25.851 96.9674 24.8431V18.452H100.361C100.485 18.452 100.585 18.3503 100.585 18.2254V15.5681C100.586 15.5385 100.581 15.5089 100.57 15.4813C100.56 15.4536 100.544 15.4285 100.523 15.4073C100.502 15.3861 100.477 15.3693 100.45 15.358C100.423 15.3467 100.393 15.3411 100.364 15.3415L100.361 15.3401ZM112.184 15.3537V14.9264C112.184 13.6694 112.665 13.1089 113.742 13.1089C114.385 13.1089 114.902 13.2369 115.48 13.4304C115.552 13.4528 115.626 13.4416 115.683 13.3989C115.712 13.3779 115.735 13.3502 115.751 13.3182C115.768 13.2862 115.776 13.2508 115.776 13.215V10.6093C115.776 10.5607 115.761 10.5131 115.732 10.474C115.703 10.4348 115.663 10.4061 115.616 10.3922C115.006 10.21 114.225 10.023 113.053 10.023C110.207 10.023 108.7 11.6313 108.7 14.6723V15.3267H107.218C107.094 15.3267 106.992 15.4284 106.992 15.5531V18.2242C106.992 18.3488 107.094 18.4508 107.218 18.4508H108.7V29.0561C108.7 29.1827 108.802 29.283 108.926 29.283H112.008C112.134 29.283 112.234 29.1827 112.234 29.0561V18.4515H115.113L119.524 29.0561C119.024 30.169 118.531 30.3911 117.86 30.3911C117.317 30.3911 116.743 30.2287 116.159 29.9063C116.104 29.8783 116.04 29.8724 115.98 29.8896C115.921 29.9111 115.871 29.9541 115.847 30.0114L114.801 32.3113C114.751 32.4212 114.794 32.5478 114.899 32.6051C115.99 33.1974 116.974 33.4506 118.191 33.4506C120.468 33.4506 121.727 32.3854 122.835 29.5242L128.184 15.6632C128.198 15.6289 128.203 15.5917 128.199 15.5549C128.195 15.5182 128.182 15.4831 128.16 15.4528C128.14 15.4225 128.113 15.3977 128.081 15.3805C128.049 15.3633 128.013 15.3544 127.977 15.3544H124.766C124.669 15.3544 124.583 15.4158 124.552 15.5063L121.263 24.9243L117.662 15.5001C117.646 15.4574 117.617 15.4206 117.58 15.3946C117.542 15.3685 117.498 15.3545 117.452 15.3544L112.184 15.3537ZM105.33 15.3401H102.245C102.121 15.3401 102.019 15.4418 102.019 15.5667V29.0561C102.019 29.1827 102.121 29.283 102.245 29.283H105.33C105.453 29.283 105.556 29.1827 105.556 29.0561V15.5677C105.556 15.5379 105.55 15.5083 105.539 15.4808C105.527 15.4533 105.511 15.4282 105.49 15.4072C105.469 15.3861 105.444 15.3694 105.416 15.3581C105.389 15.3467 105.359 15.34 105.33 15.3401ZM103.805 9.19759C102.583 9.19759 101.593 10.1892 101.593 11.4142C101.593 11.7055 101.65 11.994 101.761 12.2632C101.872 12.5324 102.035 12.777 102.241 12.983C102.446 13.189 102.69 13.3524 102.959 13.4639C103.227 13.5753 103.515 13.6327 103.805 13.6327C105.027 13.6327 106.015 12.6399 106.015 11.4142C106.015 10.1895 105.025 9.19759 103.805 9.19759ZM130.818 19.6775C129.599 19.6775 128.649 18.6947 128.649 17.5012C128.649 16.3078 129.611 15.3138 130.83 15.3138C132.05 15.3138 133 16.2963 133 17.4888C133 18.6823 132.038 19.6775 130.818 19.6775ZM130.83 15.5302C129.718 15.5302 128.877 16.4162 128.877 17.5012C128.877 18.5858 129.713 19.4599 130.818 19.4599C131.931 19.4599 132.771 18.5745 132.771 17.4888C132.771 16.4043 131.935 15.5302 130.83 15.5302ZM131.311 17.7126L131.926 18.5743H131.407L130.854 17.7838H130.38V18.5743H129.947V16.2901H130.961C131.492 16.2901 131.84 16.5617 131.84 17.0188C131.842 17.3933 131.626 17.6221 131.314 17.7126H131.311ZM130.945 16.6821H130.38V17.4045H130.945C131.226 17.4045 131.395 17.2662 131.395 17.0429C131.395 16.8079 131.226 16.6821 130.945 16.6821Z" fill="white"/>
</svg>
