<svg width="100" height="44" viewBox="0 0 100 44" fill="none" xmlns="http://www.w3.org/2000/svg">
<path d="M21.997 10C15.3714 10 10 15.3727 10 22.0001C10 28.6278 15.3714 34 21.997 34C28.6233 34 33.9941 28.6278 33.9941 22.0001C33.9941 15.3731 28.6235 10 21.997 10ZM27.4987 27.3075C27.4475 27.3915 27.3803 27.4644 27.3009 27.5223C27.2214 27.5802 27.1314 27.6219 27.0358 27.6449C26.9403 27.6679 26.8411 27.6719 26.7441 27.6565C26.647 27.6412 26.5539 27.6068 26.4701 27.5555C23.6534 25.8344 20.1074 25.4447 15.9314 26.399C15.738 26.443 15.5351 26.4084 15.3672 26.3028C15.1994 26.1972 15.0803 26.0293 15.0361 25.8359C15.0142 25.7401 15.0113 25.641 15.0277 25.5441C15.0441 25.4472 15.0794 25.3546 15.1316 25.2714C15.1839 25.1882 15.252 25.1161 15.3321 25.0593C15.4123 25.0025 15.5028 24.962 15.5986 24.9403C20.1686 23.8959 24.0886 24.3456 27.2509 26.2787C27.6033 26.495 27.715 26.955 27.4987 27.3075ZM28.9671 24.0401C28.6964 24.4803 28.1205 24.6193 27.6807 24.3484C24.4559 22.3658 19.5402 21.7916 15.7259 22.9497C15.2313 23.0992 14.7088 22.8203 14.5587 22.3264C14.487 22.0889 14.5125 21.8327 14.6294 21.6139C14.7463 21.3952 14.9452 21.2318 15.1824 21.1595C19.5394 19.8371 24.9559 20.4777 28.6591 22.754C29.0989 23.0248 29.2379 23.6007 28.9671 24.0401ZM29.0932 20.6376C25.2266 18.3404 18.8473 18.1292 15.1556 19.2499C14.5628 19.4297 13.9359 19.095 13.7563 18.502C13.6699 18.2171 13.7001 17.9096 13.8404 17.647C13.9807 17.3845 14.2194 17.1884 14.5042 17.1019C18.742 15.815 25.7868 16.0637 30.2384 18.7071C30.3653 18.7822 30.4761 18.8815 30.5645 18.9995C30.653 19.1175 30.7172 19.2518 30.7537 19.3946C30.7902 19.5375 30.7981 19.6862 30.777 19.8321C30.756 19.978 30.7063 20.1184 30.631 20.2451C30.3158 20.7785 29.6247 20.9543 29.0932 20.6376ZM42.6398 21.0778C40.5683 20.5837 40.2001 20.2369 40.2001 19.5083C40.2001 18.8199 40.8476 18.3566 41.8118 18.3566C42.7458 18.3566 43.6713 18.7084 44.6426 19.4326C44.6712 19.4545 44.7085 19.4633 44.7443 19.4575C44.7623 19.4549 44.7796 19.4487 44.7951 19.4392C44.8107 19.4297 44.8241 19.4171 44.8346 19.4022L45.846 17.9761C45.8659 17.9478 45.8744 17.913 45.8696 17.8787C45.8648 17.8444 45.8471 17.8133 45.8202 17.7915C44.6641 16.864 43.3633 16.413 41.8419 16.413C39.6056 16.413 38.0426 17.7556 38.0426 19.6765C38.0426 21.7364 39.3907 22.4658 41.7201 23.0288C43.7014 23.4855 44.0366 23.8681 44.0366 24.5519C44.0366 25.31 43.3604 25.7814 42.2716 25.7814C41.0625 25.7814 40.0755 25.373 38.9724 24.4187C38.9449 24.3954 38.9095 24.3836 38.8735 24.3857C38.8363 24.3886 38.8033 24.4058 38.7804 24.433L37.6458 25.7829C37.5985 25.8402 37.6043 25.9233 37.6587 25.972C38.9423 27.1184 40.521 27.7231 42.2258 27.7231C44.6354 27.7231 46.1927 26.4062 46.1927 24.3671C46.197 22.6465 45.1669 21.6936 42.6441 21.0797L42.6398 21.0778ZM51.6451 19.0344C50.6008 19.0344 49.7441 19.4459 49.0364 20.2892V19.34C49.0365 19.3041 49.0224 19.2697 48.9972 19.2442C48.9719 19.2187 48.9376 19.2042 48.9017 19.204H47.0465C46.972 19.204 46.9118 19.2651 46.9118 19.34V29.8869C46.9118 29.9614 46.972 30.023 47.0465 30.023H48.9017C48.9762 30.023 49.0364 29.9614 49.0364 29.8869V26.5581C49.7441 27.3505 50.6008 27.7389 51.6451 27.7389C53.5863 27.7389 55.5518 26.2443 55.5518 23.3871C55.5547 20.5293 53.5892 19.0342 51.6466 19.0342L51.6451 19.0344ZM53.3943 23.3871C53.3943 24.8414 52.4989 25.8574 51.2153 25.8574C49.9475 25.8574 48.9905 24.7955 48.9905 23.3871C48.9905 21.9784 49.9475 20.9169 51.2153 20.9169C52.4775 20.9167 53.3943 21.9555 53.3943 23.3871ZM60.5874 19.0344C58.0875 19.0344 56.1291 20.9597 56.1291 23.4182C56.1291 25.8502 58.0746 27.7546 60.5573 27.7546C63.0658 27.7546 65.0299 25.8359 65.0299 23.3871C65.0299 20.9465 63.0787 19.0344 60.5874 19.0344ZM60.5874 25.8717C59.2579 25.8717 58.2551 24.8027 58.2551 23.3863C58.2551 21.9635 59.2236 20.9311 60.5573 20.9311C61.8953 20.9311 62.9039 21.9996 62.9039 23.4174C62.9039 24.84 61.9297 25.8717 60.5874 25.8717ZM70.3677 19.204H68.3263V17.1168C68.3263 17.099 68.3229 17.0814 68.3162 17.0649C68.3095 17.0485 68.2996 17.0336 68.2871 17.0209C68.2746 17.0083 68.2597 16.9983 68.2433 16.9914C68.2269 16.9846 68.2094 16.981 68.1916 16.9809H66.3364C66.2619 16.9809 66.2003 17.042 66.2003 17.1168V19.204H65.3092C65.2347 19.204 65.1746 19.2651 65.1746 19.34V20.9345C65.1746 21.0093 65.2347 21.0705 65.3092 21.0705H66.2003V25.1968C66.2003 26.8633 67.0298 27.7088 68.6672 27.7088C69.3319 27.7088 69.8835 27.5712 70.4035 27.276C70.4465 27.2531 70.4723 27.2072 70.4723 27.1585V25.6396C70.4723 25.5937 70.4479 25.5493 70.4078 25.5249C70.3883 25.5124 70.3658 25.5053 70.3427 25.5043C70.3195 25.5033 70.2966 25.5084 70.276 25.5192C69.9193 25.6983 69.5741 25.7814 69.1873 25.7814C68.5927 25.7814 68.3263 25.5106 68.3263 24.9059V21.0712H70.3677C70.4422 21.0712 70.5024 21.0102 70.5024 20.9352V19.3409C70.503 19.3231 70.5 19.3054 70.4935 19.2888C70.4871 19.2722 70.4773 19.2571 70.4649 19.2444C70.4524 19.2316 70.4375 19.2216 70.421 19.2148C70.4046 19.208 70.3869 19.2047 70.3691 19.2049L70.3677 19.204ZM77.4791 19.2122V18.9558C77.4791 18.2017 77.7685 17.8653 78.416 17.8653C78.8028 17.8653 79.1137 17.9422 79.4618 18.0582C79.5048 18.0717 79.5492 18.065 79.5836 18.0393C79.601 18.0267 79.6152 18.0101 79.6249 17.9909C79.6347 17.9717 79.6396 17.9505 79.6395 17.929V16.3656C79.6398 16.3364 79.6306 16.3079 79.6133 16.2844C79.596 16.2609 79.5715 16.2437 79.5435 16.2353C79.1767 16.126 78.7069 16.0138 78.002 16.0138C76.2901 16.0138 75.3832 16.9788 75.3832 18.8034V19.196H74.4922C74.4177 19.196 74.3561 19.2571 74.3561 19.3319V20.9345C74.3561 21.0093 74.4177 21.0705 74.4922 21.0705H75.3832V27.4337C75.3832 27.5096 75.4448 27.5698 75.5193 27.5698H77.3731C77.449 27.5698 77.5092 27.5096 77.5092 27.4337V21.0709H79.2412L81.8944 27.4337C81.5935 28.1014 81.297 28.2347 80.893 28.2347C80.5664 28.2347 80.2211 28.1372 79.8701 27.9438C79.8369 27.927 79.7985 27.9234 79.7627 27.9338C79.7269 27.9467 79.6968 27.9725 79.6824 28.0068L79.0535 29.3868C79.0235 29.4527 79.0492 29.5287 79.1123 29.5631C79.7684 29.9184 80.3601 30.0703 81.0921 30.0703C82.4617 30.0703 83.2195 29.4312 83.8857 27.7145L87.1033 19.3979C87.1117 19.3774 87.1147 19.355 87.1122 19.333C87.1097 19.3109 87.1017 19.2898 87.089 19.2717C87.0769 19.2535 87.0605 19.2386 87.0412 19.2283C87.022 19.218 87.0005 19.2126 86.9787 19.2126H85.0475C84.9888 19.2126 84.9372 19.2495 84.9186 19.3038L82.9402 24.9546L80.7741 19.3C80.7644 19.2744 80.7471 19.2523 80.7246 19.2367C80.7021 19.2211 80.6754 19.2127 80.648 19.2126L77.4791 19.2122ZM73.3561 19.204H71.5009C71.4264 19.204 71.3648 19.2651 71.3648 19.34V27.4337C71.3648 27.5096 71.4264 27.5698 71.5009 27.5698H73.3561C73.4306 27.5698 73.4922 27.5096 73.4922 27.4337V19.3406C73.4922 19.3227 73.4887 19.305 73.4819 19.2885C73.4751 19.272 73.4651 19.2569 73.4524 19.2443C73.4398 19.2317 73.4247 19.2217 73.4082 19.2148C73.3917 19.208 73.374 19.204 73.3561 19.204ZM72.4392 15.5186C71.7043 15.5186 71.1084 16.1135 71.1084 16.8485C71.1084 17.0233 71.1428 17.1964 71.2097 17.3579C71.2766 17.5194 71.3746 17.6662 71.4982 17.7898C71.6218 17.9134 71.7685 18.0114 71.93 18.0783C72.0914 18.1452 72.2645 18.1796 72.4392 18.1796C73.1742 18.1796 73.7687 17.5839 73.7687 16.8485C73.7687 16.1137 73.1727 15.5186 72.4392 15.5186ZM88.6877 21.8065C87.9543 21.8065 87.3826 21.2168 87.3826 20.5007C87.3826 19.7847 87.9614 19.1883 88.6949 19.1883C89.4284 19.1883 90 19.7778 90 20.4933C90 21.2094 89.4212 21.8065 88.6877 21.8065ZM88.6949 19.3181C88.0259 19.3181 87.5202 19.8497 87.5202 20.5007C87.5202 21.1515 88.023 21.6759 88.6877 21.6759C89.3568 21.6759 89.8625 21.1447 89.8625 20.4933C89.8625 19.8426 89.3596 19.3181 88.6949 19.3181ZM88.9843 20.6276L89.3539 21.1446H89.0416L88.7092 20.6703H88.4241V21.1446H88.1634V19.7741H88.7737C89.0932 19.7741 89.3023 19.937 89.3023 20.2113C89.3038 20.436 89.1734 20.5733 88.9857 20.6276H88.9843ZM88.7637 20.0092H88.4241V20.4427H88.7637C88.9327 20.4427 89.0344 20.3597 89.0344 20.2258C89.0344 20.0847 88.9327 20.0092 88.7637 20.0092Z" fill="white"/>
</svg>
