<svg width="59" height="84" viewBox="0 0 59 84" fill="none" xmlns="http://www.w3.org/2000/svg">
<path fill-rule="evenodd" clip-rule="evenodd" d="M0 4.2C0 3.08609 0.444003 2.0178 1.23434 1.23015C2.02467 0.442498 3.09659 0 4.21429 0H12.6429C13.7606 0 14.8325 0.442498 15.6228 1.23015C16.4131 2.0178 16.8571 3.08609 16.8571 4.2V79.8C16.8571 80.9139 16.4131 81.9822 15.6228 82.7699C14.8325 83.5575 13.7606 84 12.6429 84H4.21429C3.09659 84 2.02467 83.5575 1.23434 82.7699C0.444003 81.9822 0 80.9139 0 79.8V4.2ZM42.1429 4.2C42.1429 3.08609 42.5869 2.0178 43.3772 1.23015C44.1675 0.442498 45.2394 0 46.3571 0H54.7857C55.9034 0 56.9753 0.442498 57.7657 1.23015C58.556 2.0178 59 3.08609 59 4.2V79.8C59 80.9139 58.556 81.9822 57.7657 82.7699C56.9753 83.5575 55.9034 84 54.7857 84H46.3571C45.2394 84 44.1675 83.5575 43.3772 82.7699C42.5869 81.9822 42.1429 80.9139 42.1429 79.8V4.2Z" fill="white"/>
</svg>
