<svg width="48" height="48" viewBox="0 0 48 48" fill="none" xmlns="http://www.w3.org/2000/svg">
<path fill-rule="evenodd" clip-rule="evenodd" d="M7 2.4C7 1.76348 7.25587 1.15303 7.71131 0.702943C8.16676 0.252856 8.78447 0 9.42857 0H14.2857C14.9298 0 15.5475 0.252856 16.003 0.702943C16.4584 1.15303 16.7143 1.76348 16.7143 2.4V45.6C16.7143 46.2365 16.4584 46.847 16.003 47.2971C15.5475 47.7471 14.9298 48 14.2857 48H9.42857C8.78447 48 8.16676 47.7471 7.71131 47.2971C7.25587 46.847 7 46.2365 7 45.6V2.4ZM31.2857 2.4C31.2857 1.76348 31.5416 1.15303 31.997 0.702943C32.4525 0.252856 33.0702 0 33.7143 0H38.5714C39.2155 0 39.8332 0.252856 40.2887 0.702943C40.7441 1.15303 41 1.76348 41 2.4V45.6C41 46.2365 40.7441 46.847 40.2887 47.2971C39.8332 47.7471 39.2155 48 38.5714 48H33.7143C33.0702 48 32.4525 47.7471 31.997 47.2971C31.5416 46.847 31.2857 46.2365 31.2857 45.6V2.4Z" fill="white"/>
</svg>
